<?xml version="1.0" standalone="no"?>
<!DOCTYPE svg PUBLIC "-//W3C//DTD SVG 20010904//EN" "http://www.w3.org/TR/2001/REC-SVG-20010904/DTD/svg10.dtd">
<svg version="1.0" xmlns="http://www.w3.org/2000/svg" width="512.000000pt" height="512.000000pt"
  viewBox="0 0 512.000000 512.000000" preserveAspectRatio="xMidYMid meet">

  <g transform="translate(0.000000,512.000000) scale(0.100000,-0.100000)" fill="white" stroke="none">
    <path d="M0 2560 l0 -2560 1890 0 1890 0 0 1000 0 1000 170 0 170 0 0 170 0
170 165 0 165 0 0 165 0 165 170 0 170 0 -2 168 -3 167 -167 3 -168 2 0 165 0
165 -165 0 -165 0 0 165 0 165 333 2 332 3 0 165 0 165 -332 3 -333 2 0 -170
0 -170 -167 2 -168 3 -3 723 -2 722 -1890 0 -1890 0 0 -2560z m3450 1340 l0
-890 -165 0 -165 0 0 -170 0 -170 -170 0 -170 0 0 -165 0 -165 -165 0 -165 0
0 -170 0 -170 -170 0 -170 0 0 -165 0 -165 170 0 170 0 0 -165 0 -165 165 0
165 0 0 -170 0 -170 170 0 170 0 0 170 0 170 165 0 165 0 0 -505 0 -505 -1557
2 -1558 3 -3 2215 c-1 1218 0 2221 3 2228 3 9 325 12 1560 12 l1555 0 0 -890z" />
    <path d="M780 4175 l0 -165 1115 0 1115 0 0 165 0 165 -1115 0 -1115 0 0 -165z" />
    <path d="M780 3395 l0 -165 1115 0 1115 0 0 165 0 165 -1115 0 -1115 0 0 -165z" />
    <path d="M1780 1335 l0 -335 -500 0 -500 0 0 -165 0 -165 1000 0 1000 0 0 165
0 165 -332 2 -333 3 -3 333 -2 332 -165 0 -165 0 0 -335z" />
    <path d="M4790 3340 l0 -330 165 0 165 0 0 330 0 330 -165 0 -165 0 0 -330z" />
  </g>
</svg>